<svg width="30" height="20" viewBox="0 0 30 20" fill="none" xmlns="http://www.w3.org/2000/svg">
<path d="M28.7013 8.7013H4.43366L10.2243 2.91031C10.7316 2.40331 10.7316 1.58087 10.2243 1.07395C9.71698 0.566658 8.89454 0.566658 8.38799 1.07395L0.380471 9.08162C-0.126824 9.58862 -0.126824 10.4111 0.380471 10.918L8.38799 18.926C8.64156 19.1797 8.97389 19.3064 9.30613 19.3064C9.63838 19.3064 9.9707 19.1797 10.2243 18.926C10.7316 18.419 10.7316 17.5966 10.2243 17.0897L4.43366 11.2985H28.7013C29.4185 11.2985 30 10.717 30 9.99984C30 9.2827 29.4185 8.7013 28.7013 8.7013Z" fill="white"/>
</svg>
