<svg width="375" height="723" viewBox="0 0 375 723" fill="none" xmlns="http://www.w3.org/2000/svg">
<path d="M375 329C375 329 282.695 337 244.57 508C240.556 529 237.546 569 194.404 590C188.384 594 72.3871 632.032 72.3871 723.032C112.52 723.032 375 723 375 723V329Z" fill="url(#paint0_linear)"/>
<path d="M235 723C235 723 203 684 225 648C237.548 624.065 278 622 266 559C266 542 251 432 375 371C375 397 375 723 375 723H235Z" fill="url(#paint1_linear)"/>
<path d="M39.871 687.806C53.9809 687.806 65.4193 676.368 65.4193 662.258C65.4193 648.148 53.9809 636.71 39.871 636.71C25.761 636.71 14.3226 648.148 14.3226 662.258C14.3226 676.368 25.761 687.806 39.871 687.806Z" fill="url(#paint2_linear)"/>
<path d="M82.8596 649.799C88.1985 649.799 92.5266 645.47 92.5266 640.132C92.5266 634.793 88.1985 630.465 82.8596 630.465C77.5207 630.465 73.1926 634.793 73.1926 640.132C73.1926 645.47 77.5207 649.799 82.8596 649.799Z" fill="url(#paint3_linear)"/>
<path d="M0 50V0H375V50" fill="url(#paint4_linear)"/>
<defs>
<linearGradient id="paint0_linear" x1="217.042" y1="733.798" x2="351.584" y2="342.069" gradientUnits="userSpaceOnUse">
<stop stop-color="#42A9E0"/>
<stop offset="1" stop-color="#4D59D8"/>
</linearGradient>
<linearGradient id="paint1_linear" x1="385.85" y1="414.726" x2="282.455" y2="730.74" gradientUnits="userSpaceOnUse">
<stop stop-color="#34E8DC"/>
<stop offset="1" stop-color="#78B3EF"/>
</linearGradient>
<linearGradient id="paint2_linear" x1="14.3221" y1="662.258" x2="65.4199" y2="662.258" gradientUnits="userSpaceOnUse">
<stop stop-color="#34E8DC"/>
<stop offset="1" stop-color="#78B3EF"/>
</linearGradient>
<linearGradient id="paint3_linear" x1="90.0741" y1="642.869" x2="74.173" y2="636.835" gradientUnits="userSpaceOnUse">
<stop stop-color="#34E8DC"/>
<stop offset="1" stop-color="#78B3EF"/>
</linearGradient>
<linearGradient id="paint4_linear" x1="207.865" y1="-37.2431" x2="162.979" y2="99.944" gradientUnits="userSpaceOnUse">
<stop stop-color="#42A9E0"/>
<stop offset="1" stop-color="#4D59D8"/>
</linearGradient>
</defs>
</svg>
